<svg width="25" height="24" viewBox="0 0 25 24" fill="none" xmlns="http://www.w3.org/2000/svg">
<path id="Vector" d="M20.9557 3.54425C19.8473 2.42484 18.5286 1.53548 17.0754 0.927247C15.6222 0.319018 14.0632 0.00391354 12.4878 3.62235e-05C10.9125 -0.00384109 9.35188 0.303585 7.8957 0.904654C6.43953 1.50572 5.11647 2.38859 4.00253 3.50253C2.88859 4.61647 2.00572 5.93953 1.40465 7.3957C0.803585 8.85188 0.496159 10.4125 0.500036 11.9878C0.503914 13.5632 0.819018 15.1222 1.42725 16.5754C2.03548 18.0286 2.92484 19.3473 4.04425 20.4557C5.1527 21.5752 6.4714 22.4645 7.92459 23.0728C9.37779 23.681 10.9368 23.9961 12.5122 24C14.0875 24.0038 15.6481 23.6964 17.1043 23.0953C18.5605 22.4943 19.8835 21.6114 20.9975 20.4975C22.1114 19.3835 22.9943 18.0605 23.5953 16.6043C24.1964 15.1481 24.5038 13.5875 24.5 12.0122C24.4961 10.4368 24.181 8.87779 23.5728 7.42459C22.9645 5.9714 22.0752 4.6527 20.9557 3.54425ZM2.24996 12C2.24958 11.0928 2.36986 10.1896 2.60765 9.31417C2.9995 10.1577 3.56859 10.8864 3.95563 11.7518C4.45586 12.8643 5.79904 12.5557 6.39215 13.5306C6.91853 14.3959 6.35638 15.4904 6.75037 16.3958C7.03652 17.0529 7.71131 17.1966 8.17683 17.677C8.6525 18.1618 8.64236 18.8259 8.71496 19.458C8.79689 20.2006 8.92978 20.9368 9.11268 21.6612C9.11268 21.6665 9.11268 21.6724 9.11695 21.6777C5.12211 20.2748 2.24996 16.4668 2.24996 12ZM12.5 22.25C11.9276 22.2499 11.3561 22.202 10.7917 22.107C10.7975 21.9623 10.8002 21.8272 10.8146 21.7333C10.9443 20.8844 11.3693 20.0543 11.9427 19.419C12.5091 18.7923 13.2853 18.3684 13.7636 17.6573C14.2324 16.9633 14.3728 16.029 14.1795 15.2181C13.895 14.0201 12.2672 13.6203 11.3896 12.9705C10.8851 12.5969 10.4361 12.0192 9.7736 11.9722C9.46823 11.9509 9.21251 12.0165 8.90982 11.9386C8.63221 11.8665 8.4144 11.7171 8.11864 11.756C7.5661 11.8286 7.21749 12.4191 6.62385 12.339C6.06063 12.2637 5.48033 11.6044 5.3522 11.0679C5.18777 10.3781 5.73337 10.1545 6.31795 10.0931C6.56192 10.0674 6.83579 10.0397 7.07015 10.1294C7.37872 10.2436 7.52446 10.5458 7.80153 10.6985C8.32097 10.9835 8.42614 10.5282 8.3466 10.0669C8.22755 9.3761 8.08875 9.09476 8.70482 8.61909C9.1319 8.2913 9.49706 8.05427 9.42873 7.46543C9.38815 7.11949 9.19863 6.96307 9.37534 6.61873C9.50934 6.35661 9.87716 6.12011 10.1169 5.96369C10.7356 5.56009 12.7675 5.58999 11.9373 4.46035C11.6933 4.12883 11.2433 3.53625 10.8162 3.4551C10.2824 3.3542 10.0453 3.94998 9.67323 4.21264C9.28886 4.48437 8.54039 4.79294 8.15548 4.3728C7.63764 3.80744 8.49875 3.6222 8.68933 3.22714C8.77742 3.04296 8.68933 2.78725 8.54092 2.54648C8.73347 2.46533 8.92921 2.39006 9.12816 2.32066C9.25285 2.41275 9.40076 2.46821 9.55525 2.48081C9.9124 2.5043 10.2493 2.31105 10.561 2.55448C10.907 2.82141 11.1563 3.15881 11.6154 3.24209C12.0596 3.3227 12.5299 3.06378 12.6399 2.60894C12.7066 2.3324 12.6399 2.04038 12.5758 1.75477C14.5724 1.76626 16.5217 2.36421 18.1813 3.47432C18.0745 3.43375 17.9469 3.43855 17.7894 3.51169C17.4654 3.66224 17.0063 4.04554 16.9684 4.42565C16.9251 4.85701 17.5615 4.91787 17.8637 4.91787C18.3174 4.91787 18.7771 4.715 18.6308 4.19075C18.5673 3.96333 18.4808 3.72683 18.3415 3.58376C18.6764 3.81618 18.9973 4.06824 19.3024 4.33863C19.2976 4.34344 19.2928 4.34771 19.288 4.35305C18.9805 4.67336 18.6233 4.92694 18.413 5.31666C18.2646 5.59106 18.0975 5.72132 17.7969 5.79232C17.6314 5.83129 17.4424 5.84571 17.3036 5.95675C16.9171 6.26105 17.1371 6.99243 17.5033 7.21184C17.9662 7.48892 18.6527 7.35865 19.0018 6.96307C19.2746 6.65343 19.4353 6.11584 19.9259 6.11637C20.1419 6.11592 20.3494 6.20049 20.5036 6.3518C20.7064 6.56214 20.6664 6.7586 20.7096 7.02126C20.786 7.48785 21.1976 7.2348 21.448 6.99937C21.6305 7.32418 21.7951 7.65869 21.9412 8.00142C21.6658 8.39807 21.4469 8.8305 20.7844 8.36818C20.3877 8.09111 20.1438 7.68911 19.6457 7.56419C19.2106 7.45742 18.7648 7.56846 18.335 7.64267C17.8466 7.72755 17.2673 7.76492 16.8968 8.13488C16.5386 8.4915 16.3491 8.96876 15.9679 9.32698C15.2307 10.021 14.9194 10.7785 15.3967 11.7598C15.8558 12.7031 16.8162 13.2151 17.8524 13.1478C18.8705 13.08 19.9281 12.4895 19.8987 13.9689C19.888 14.4926 19.9975 14.8551 20.1582 15.3414C20.3071 15.7898 20.297 16.2244 20.3311 16.6873C20.3636 17.2293 20.4484 17.7669 20.5842 18.2926C19.6273 19.5246 18.4015 20.5216 17.0004 21.2075C15.5993 21.8934 14.06 22.25 12.5 22.25Z" fill="#06B8E6"/>
</svg>
